<svg xmlns="http://www.w3.org/2000/svg" viewBox="0 0 425.1 33.04"><defs><style>.cls-1{fill:#244093;}</style></defs><g id="Layer_2" data-name="Layer 2"><g id="Layer_1-2" data-name="Layer 1"><g id="Layer_2-2" data-name="Layer 2"><g id="Layer_1-2-2" data-name="Layer 1-2"><path class="cls-1" d="M10.37,11.77a19.08,19.08,0,0,0,1.06-6.7c0-1.81-.83-4.39-3-4.39C6.82.68,5.83,2.39,5.23,3.56,4.24,5.5,3.6,6.62,3.37,7,3,7.68,1.59,9.31.72,9.31.31,9.31,0,8.93,0,8c0-1.56.68-3,.68-5.5C.64,1.8.18,1.27.18.63c0-.3.15-.42.5-.5h5.6c3.67,0,7.27,0,11.17,0h9.08c1.71,0,2.09,2.31,2.09,4.5,0,1.55-.19,2.08-.19,3.41a9,9,0,0,0,.26,1.85.1.1,0,0,1-.09.11h0c-2.31,0-3.26-3.74-4.24-5.14C23,3.07,20.93,1.17,18.5,1.06a11.59,11.59,0,0,1,1.6,6.13,39.22,39.22,0,0,1-.45,5.41A25.45,25.45,0,0,0,19,16.76a19.88,19.88,0,0,0,1.1,5.61,10.84,10.84,0,0,1,.22,2.13,3.32,3.32,0,0,1-3.18,3.14H10.71c-2.8,0-3.63-2.12-3.63-4.66C7.08,19.08,9,15.5,10.37,11.77Z"/><path class="cls-1" d="M31.72,13.81l.11-.3a21.1,21.1,0,0,0,1.5-6.74c0-2-.3-4.58-2.23-5.68A2.7,2.7,0,0,0,29.6.72c-.42,0-.6,0-.6-.42,0-.15.11-.23.64-.23h5a1.28,1.28,0,0,1,.57.31c2.65,2.42,2.91,5.14,3.59,8.5C40.43,7.4,41,6.57,43.3,6.57h.15A4.59,4.59,0,0,1,47,8.5c.95,1.25,1.4,4,1.4,5.56v.27c0,6.7,1.5,6.36,1.5,9.5,0,2.84-1.81,3.71-4.73,3.71-3.44,0-4.5-2.05-4.5-4.58a10.85,10.85,0,0,1,.76-4.36c2.5-5.56,2.5-7.41,2.5-7.75,0-1.29-.61-3-2.16-3-1.1,0-2,1-3.07,2.24,0,2.5-1.24,5.45-1.24,8.13,0,1.74.56,3,.56,4.5,0,2.58-1.62,4.77-4.31,4.77-3,0-4.54-1.13-4.54-4.24S30.66,17,31.72,13.81Z"/><path class="cls-1" d="M50.9,18.47a11.32,11.32,0,0,1,.72-3.9A12.17,12.17,0,0,1,63.35,6.39c3.75,0,8.22,3,8.22,7,0,1.18-.53,2-1.74,2s-2.23-.68-3.5-.68c-2.08,0-5.5,2.39-6.47,4.2a4.48,4.48,0,0,0-.57,2.2A3.89,3.89,0,0,0,63,24.9c3.75,0,6.62-2.88,7.95-6.13a14.57,14.57,0,0,0,.64-2.35c0-.08.07-.15.15-.15s.11,0,.11.19A11,11,0,0,1,66.35,26a11.39,11.39,0,0,1-5.85,1.41c-3.74,0-6.74-.61-8.5-4.21A10.5,10.5,0,0,1,50.9,18.47Zm8.5-.8a33,33,0,0,1,3.22-2.8A7.26,7.26,0,0,0,65.19,10a2.62,2.62,0,0,0-2.6-2.65h0c-2.65,0-3.6,2.91-3.6,5a51.9,51.9,0,0,0,.43,5.29Z"/><path class="cls-1" d="M82.89,23.39c0-6.66,4.69-11.39,4.69-18a5.94,5.94,0,0,0-1.5-4.16A1.09,1.09,0,0,1,86,.92c0-.34,1.33-.45,1.75-.45,2,0,4.5-.23,6.88-.23a20,20,0,0,1,4.81.5c6.93,1.86,11.36,9.81,11.36,16.47,0,4.24-1.78,8.7-6.25,10,0,0-.08,0-.11,0-.53.16-1.25.34-6.1.34a6.72,6.72,0,0,1-3.63-1.2,3,3,0,0,1-2.46,1.29H87.59C85.08,27.67,82.89,26.23,82.89,23.39Zm12.3-3.82a14.35,14.35,0,0,0,.15,2.27,4.56,4.56,0,0,0,4.5,3.59h.34a17.49,17.49,0,0,1-1.33-6.85c0-3.44,1.14-6.77,1.14-10.22,0-3.78-1.18-7.5-5.94-7.5a8.38,8.38,0,0,1,2.53,6.21c0,4.17-1.4,8.26-1.4,12.5Z"/><path class="cls-1" d="M118.65,13.66c2.61,0,3.71,1.5,5.41,3.07.11-.08.15-.15.87-2l.83-2.12a7,7,0,0,0,.34-1.7,3.45,3.45,0,0,0-3.22-3.6c-2.08,0-3.25,2.35-4.39,3.63-.9,1.06-3.71,3.18-5.3,3.18-.15,0-.18-.07-.18-.18a2.44,2.44,0,0,1,.3-.91c.76-1.93,1.89-3.29,1.89-5.45V7.35c0-.35,0-.65.53-.72l10.11-.08H126a3.5,3.5,0,0,1,1.32.23,7,7,0,0,1,4.24,6.62,17.59,17.59,0,0,1-.83,4.6,11.49,11.49,0,0,0-.65,3c0,1.85,2.43,1.93,2.43,3.71a2.74,2.74,0,0,1-3,2.79c-1,0-1.44.08-2.12.08-1.63,0-3.11-.42-4.5-3.14-1.63,1.4-3.18,3.06-5.5,3.06-3.14-.26-4.74-3-4.74-5.83C112.67,17.91,114.37,13.66,118.65,13.66Zm2.08,8.74c1.86,0,2.23-2.34,2.5-3.86a1.5,1.5,0,0,0,0-.37c0-1.18-1.13-1.67-2.08-1.75-1.5,0-1.86,2-1.86,3.11S119.4,22.41,120.73,22.4Z"/><path class="cls-1" d="M131,6.85a.33.33,0,0,1,.23-.34h7.11c3.18,1.59,5.91,5.87,7.65,9.91,0,0,.87-2.87,1.21-4a2,2,0,0,0,.07-.6,5.7,5.7,0,0,0-.75-2c-.57-1.06-1.4-2.39-2.65-2.39-.27,0-1.67,0-1.7-.5,0-.19,0-.41.56-.41,2.39,0,4,0,5,0a16.71,16.71,0,0,1,2.12,0c2.38,0,5.75,6.88,6.36,9.61,0,0,.83-2.76,1.13-3.9a7.61,7.61,0,0,0,.38-2.27c0-2.23-1.93-2.65-3.63-2.65a.32.32,0,0,1-.35-.28V7a.54.54,0,0,1,.53-.51h8.33c.38,0,1.13,0,1.13.34,0,.11,0,.42-.26.42a3.74,3.74,0,0,0-3.79,2.68C158.09,13.85,157.82,18,157,23c-.35,1.93-1.4,4.58-3.68,4.58-1.36,0-2.11-1.09-2.64-2.53-2.35-6.47-2.61-11.06-3-11.06a11.54,11.54,0,0,0-.76,2.69c-.27,1.14-.64,2.73-1.21,4.84s-2,6.14-4.81,6.14a3,3,0,0,1-2.16-.95c-1.09-1.33-1.32-3.37-1.4-5-.22-5.41.76-13.21-6.17-14.57a.28.28,0,0,1-.28-.27Z"/><path class="cls-1" d="M171,26.72a4.77,4.77,0,0,1-3.26.87c-4.92,0-6.32-5-6.32-9.46,0-3.67,1.59-10.78,7.57-11.43.15,0,.34,0,.5,0,1.78,0,3.6,1.1,5.11,2.09A11.71,11.71,0,0,0,173.81,5C172.6,1.89,171.27.72,168.43.68c-.22,0-.22-.26-.22-.3,0-.23.45-.26.87-.26h3.21A8.38,8.38,0,0,1,175,.38a6.1,6.1,0,0,1,2.16,1.78A14.31,14.31,0,0,1,180.73,12c0,2-.45,4-.45,6a8.27,8.27,0,0,0,1,3.86,5.11,5.11,0,0,1,.3,2.16c0,2.88-1.59,3.67-4.35,3.67H177c-1.77,0-3.79-.68-4.35-2.5Zm.34-4.43a2.7,2.7,0,0,0,.95-.3c.07-1.74,0-3.07.75-4.62a12.81,12.81,0,0,0,1.5-5.45c0-1.89-.79-3.37-3.21-3.37s-3.67,1.5-3.67,3.86a8.44,8.44,0,0,0,.46,2.54c.14.72.56,2.53.56,2.61.27,3.11.45,4.74,2.65,4.74Z"/><path class="cls-1" d="M183.29,23.69c0-1.59.15-3.41,3.21-13.35a13.31,13.31,0,0,0,.61-4.24c0-3-.72-5-3.82-5.5-.12,0-.19-.16-.19-.27s0-.19.19-.19h5.79c.22,0,.72.42.87.57a10.13,10.13,0,0,1,3,7.72c-.19,3.22-1,5.37-1,7.3,0,1.7.71,3.5,1,5.11.11.57.07,1.75.11,2.31v.15c0,2-1.29,4.13-3.5,4.13h-3.18C184.69,27.41,183.29,25,183.29,23.69Z"/><path class="cls-1" d="M194.79,7.16c-.15,0-.22,0-.22-.38,0-.19.19-.23.26-.23h4c.46,0,.65,0,.76.11a9.1,9.1,0,0,1,3.44,7.27v2c0,1.33-.07,2.65-.07,3.93,0,1.48.64,2.7.64,4.13,0,1.85-1.06,3.41-3.06,3.41h-3.71c-1.48,0-2.09-1.5-2.09-3.15,0-5.6,2.69-7.37,2.84-12.52C197.63,10,197.29,7.64,194.79,7.16ZM198.46,0a2.78,2.78,0,0,1,2.69,2.88,1.33,1.33,0,0,1-1.29,1.5c-.45,0-.83-.2-1.28-.2-.69,0-1.29.65-1.93.65-1,0-1.44-1.33-1.44-2.12C195.21.75,196.65,0,198.46,0Z"/><path class="cls-1" d="M205.16,21.92a2,2,0,0,1,1.93-2.2,2.48,2.48,0,0,1,1,.27c2.8,1.44,3.5,5.67,7.23,5.67a2.28,2.28,0,0,0,2.54-2.16,3.25,3.25,0,0,0-2.35-2.69l-4.62-1.4a9.3,9.3,0,0,1-4.46-2.87,5.59,5.59,0,0,1-.93-3.37c0-4.47,3.9-6.58,7.84-6.58,1.78,0,4.16.34,5.52,1.63.19.14,1.1,1,1.32,1.28a7,7,0,0,0,2.88,2,.53.53,0,0,1,.15.45c-.08.76-1.44,1.4-2.16,1.4-3.78,0-4.46-6.06-8.36-6.06a2.45,2.45,0,0,0-2.35,2.47c0,1.25,1.17,2.08,2.23,2.46l6.78,2.5c1.63.61,4.12,2.46,4.54,4.28a5.8,5.8,0,0,1,.27,1.85c0,3.26-2.43,6.59-7.23,6.59h-2.2c-3.18,0-6.74-.31-8.74-3.15a4.94,4.94,0,0,1-.76-1.5A3.92,3.92,0,0,1,205.16,21.92Z"/><path class="cls-1" d="M238.74,12.94c0-2.8-1.56-5.11-3.72-5.11a3.75,3.75,0,0,0-2.31.95A15.13,15.13,0,0,1,234.27,15c0,.19,0,.72-.57,6.78v.34c0,2.92-.34,5.42-3.22,5.42h-1c-2.76,0-4.69-.65-4.69-3.71,0-2.77,1.5-4.77,2.53-7.35a11.51,11.51,0,0,0,1.1-4.5c0-1.25-.3-3-1.4-3.75A18.56,18.56,0,0,1,224.79,7c0-.3.22-.45.57-.45h3.79a5.82,5.82,0,0,1,3.17,1.55,7,7,0,0,1,4.55-1.59c2.84,0,3.74.64,5.07,2,1.59-1.21,2.76-1.93,4.46-1.93,5.23.07,8.26,3.82,8.26,8.85,0,1-.16,2-.16,3,0,2.61,1.56,3.33,1.56,5.57,0,2.76-3.22,3.59-5.76,3.59s-3.71-1.47-3.71-4c0-2,1.22-3.71,1.86-5.5a10.43,10.43,0,0,0,.7-3.66c0-2.61-1.41-6.55-4.55-6.55a3.32,3.32,0,0,0-2.2,1.14,12,12,0,0,1,2.1,7.23c0,1.24-.11,2.5-.11,3.74,0,1.4.18,2.84.18,4.24a3,3,0,0,1-3.06,3.33H240c-2.35,0-4.62,0-4.62-3C235.37,20.59,238.74,17.33,238.74,12.94Z"/><path class="cls-1" d="M267,23.39c0-6.66,4.7-11.39,4.7-18a5.94,5.94,0,0,0-1.5-4.16,1.09,1.09,0,0,1-.08-.31c0-.34,1.33-.45,1.74-.45,2.05,0,4.5-.23,6.89-.23a20,20,0,0,1,4.81.5c6.9,1.87,11.33,9.82,11.33,16.48,0,4.24-1.77,8.7-6.24,10,0,0-.08,0-.11,0-.53.16-1.25.34-6.09.34a6.68,6.68,0,0,1-3.64-1.21,3,3,0,0,1-2.46,1.29h-4.65C269.23,27.67,267,26.23,267,23.39Zm12.31-3.82a15.64,15.64,0,0,0,.14,2.27,4.57,4.57,0,0,0,4.5,3.59h.34A17.67,17.67,0,0,1,283,18.58c0-3.44,1.14-6.77,1.14-10.22,0-3.78-1.18-7.5-5.95-7.5a8.35,8.35,0,0,1,2.54,6.21C280.74,11.24,279.35,15.33,279.35,19.57Z"/><path class="cls-1" d="M297.05,7.16c-.15,0-.23,0-.23-.38,0-.19.19-.23.27-.23h4.05c.45,0,.64,0,.75.11a9.08,9.08,0,0,1,3.45,7.27v2c0,1.33-.08,2.65-.08,3.93,0,1.48.65,2.7.65,4.13,0,1.85-1.06,3.41-3.07,3.41h-3.71c-1.47,0-2.08-1.5-2.08-3.15,0-5.6,2.69-7.37,2.84-12.52C299.89,10,299.55,7.64,297.05,7.16ZM300.73,0a2.78,2.78,0,0,1,2.68,2.88,1.33,1.33,0,0,1-1.29,1.5c-.45,0-.83-.2-1.28-.2-.69,0-1.29.65-1.93.65-1,0-1.44-1.33-1.44-2.12C297.47.75,298.91,0,300.73,0Z"/><path class="cls-1" d="M307.42,21.92a2,2,0,0,1,1.93-2.2,2.48,2.48,0,0,1,1,.27c2.8,1.44,3.5,5.67,7.23,5.67a2.28,2.28,0,0,0,2.54-2.16,3.25,3.25,0,0,0-2.35-2.69l-4.62-1.4a9.3,9.3,0,0,1-4.46-2.87,5.59,5.59,0,0,1-.95-3.37c0-4.47,3.9-6.59,7.84-6.59,1.77,0,4.16.34,5.5,1.63.19.15,1.09,1.06,1.32,1.29a7,7,0,0,0,2.88,2,.53.53,0,0,1,.15.45c-.08.76-1.44,1.4-2.16,1.4-3.78,0-4.46-6.06-8.36-6.06a2.43,2.43,0,0,0-2.34,2.46c0,1.25,1.17,2.09,2.23,2.47l6.77,2.5c1.63.6,4.13,2.46,4.55,4.27a6.19,6.19,0,0,1,.26,1.86c0,3.25-2.42,6.59-7.23,6.59H317c-3.18,0-6.74-.31-8.74-3.15a4.72,4.72,0,0,1-.76-1.5A3.92,3.92,0,0,1,307.42,21.92Z"/><path class="cls-1" d="M332,12.8a6.25,6.25,0,0,0-1.78-4.89c-1-.91-2.31-.27-2.31-.91a.46.46,0,0,1,.46-.45H332a6.08,6.08,0,0,1,4.81,2.54c1.36-.95,3.06-2.31,4.84-2.31,5.76,0,8.06,7.07,8.06,12.11,0,4.73-1.55,8.85-6.77,8.85a10.46,10.46,0,0,1-5.3-2.23,9.22,9.22,0,0,1,.15,1.81c0,2.84-1.5,5.72-4.69,5.72-2.65,0-4.81-1.47-4.81-4.5C328.32,23.12,332,18.32,332,12.8Zm7.19,11.62c1.59,0,1.74-1.18,1.9-2.46V21.8l.26-2.42c.23-2,1.25-3.71,1.25-5.83S341.34,8.89,339,8.89c-.57,0-1.67.38-1.82,1a13.76,13.76,0,0,1,.83,5.45c0,2.12-.64,4.21-.64,6.29C337.39,22.86,337.82,24.42,339.21,24.42Z"/><path class="cls-1" d="M357.23,13.66c2.61,0,3.71,1.5,5.41,3.07.12-.08.16-.15.87-2l.84-2.12a7.52,7.52,0,0,0,.33-1.7,3.45,3.45,0,0,0-3.21-3.6c-2.08,0-3.26,2.35-4.39,3.63-.91,1.06-3.71,3.18-5.3,3.18-.16,0-.19-.07-.19-.18a2.64,2.64,0,0,1,.3-.91c.76-1.93,1.89-3.29,1.89-5.45V7.35c0-.35,0-.65.53-.72l10.11-.08h.19a3.31,3.31,0,0,1,1.32.23,7,7,0,0,1,4.24,6.62,17.59,17.59,0,0,1-.83,4.6,11.09,11.09,0,0,0-.64,3c0,1.85,2.42,1.93,2.42,3.71a2.74,2.74,0,0,1-3,2.79c-1,0-1.44.08-2.12.08-1.62,0-3.1-.42-4.5-3.14-1.63,1.4-3.18,3.06-5.5,3.06-3.14-.26-4.73-3-4.73-5.83C351.25,17.91,353,13.66,357.23,13.66Zm2.08,8.74c1.86,0,2.23-2.34,2.5-3.86a1.5,1.5,0,0,0,0-.37c0-1.18-1.14-1.67-2.08-1.75-1.48,0-1.86,2-1.86,3.11S358,22.41,359.31,22.4Z"/><path class="cls-1" d="M375.2,12.5a12.05,12.05,0,0,0,.87-4.27V7.85c-3.44,0-3.5,0-3.5,0a.51.51,0,0,1-.15-.42.75.75,0,0,1,.19-.53h3.5a8.64,8.64,0,0,0-.61-3.06c-.15-.34-1-2.16-1.32-2.65a2.3,2.3,0,0,1-.27-.8c0-.15,0-.22.23-.22.42,0,.83,0,1.25,0a4.69,4.69,0,0,1,1.29.15,4.93,4.93,0,0,1,2.84,2.35,30.9,30.9,0,0,1,1.81,4.27h2.92c.11,0,.22.08.22.38a.77.77,0,0,1-.22.61h-2.73c0,.11.08,1.62.08,2,0,1.67-.12,3.82-.12,5.64a14.24,14.24,0,0,0,.38,3.9,10.67,10.67,0,0,1,.64,3.4c0,2.5-1.1,4.61-4.46,4.61h-1a4.48,4.48,0,0,1-2.54-.45c-1.85-1.21-1.89-3.82-1.89-4.66A53.68,53.68,0,0,1,375.2,12.5Z"/><path class="cls-1" d="M391.36,7.42a11.09,11.09,0,0,1,4.14-.8c3,0,6,1.29,6.17,4.73a2,2,0,0,1-.3,1.29c-.5.64-1.17.68-1.85,1-1.14.56-1.5,2.3-3,2.3a1.36,1.36,0,0,1-1.28-1.28,16.12,16.12,0,0,1,.53-3,7.53,7.53,0,0,0,.07-.83c0-1.56-.68-3.15-1.93-3.15a2.6,2.6,0,0,0-1.5.61c-1.78,1.36-2,3.56-2,5.72,0,3.59,1.63,10,6.29,10a4.74,4.74,0,0,0,2.83-1.13c3.07-2.16,3.83-6.25,3.83-9.77a.51.51,0,0,1,.53.38,8.49,8.49,0,0,1,.07,1.67c0,7.76-5.45,12.07-10.94,12.15h-.19c-5.63,0-8.78-3.75-8.78-9.28A11.19,11.19,0,0,1,391.36,7.42Z"/><path class="cls-1" d="M407,13.81l.11-.3a20.84,20.84,0,0,0,1.5-6.74c0-2-.3-4.58-2.23-5.68a2.7,2.7,0,0,0-1.5-.37c-.42,0-.61,0-.61-.42,0-.15.12-.23.65-.23h5a1.19,1.19,0,0,1,.56.31c2.65,2.42,2.92,5.14,3.6,8.5,1.63-1.48,2.2-2.31,4.5-2.31h.16a4.62,4.62,0,0,1,3.5,1.93c.94,1.25,1.4,4,1.4,5.56v.27c0,6.7,1.5,6.36,1.5,9.5,0,2.84-1.82,3.71-4.74,3.71-3.44,0-4.5-2.05-4.5-4.58a11,11,0,0,1,.76-4.36c2.5-5.56,2.5-7.41,2.5-7.75,0-1.29-.61-3-2.16-3-1.09,0-2,1-3.06,2.24,0,2.5-1.25,5.45-1.25,8.13,0,1.74.57,3,.57,4.5,0,2.58-1.63,4.77-4.32,4.77-3,0-4.54-1.13-4.54-4.24S405.9,17,407,13.81Z"/></g></g></g></g></svg>